IKResults
version=1
nRows=5
nColumns=63
inDegrees=yes

Units are S.I. units (second, meters, Newtons, ...)
If the header above contains a line with 'inDegrees', this indicates whether rotational values are in degrees (yes) or radians (no).

endheader
time	pelvis_tilt	pelvis_list	pelvis_rotation	pelvis_tx	pelvis_ty	pelvis_tz	hip_flexion_r	hip_adduction_r	hip_rotation_r	knee_angle_r	knee_angle_r_beta	ankle_angle_r	subtalar_angle_r	mtp_angle_r	hip_flexion_l	hip_adduction_l	hip_rotation_l	knee_angle_l	knee_angle_l_beta	ankle_angle_l	subtalar_angle_l	mtp_angle_l	L5_S1_Flex_Ext	L5_S1_Lat_Bending	L5_S1_axial_rotation	L4_L5_Flex_Ext	L4_L5_Lat_Bending	L4_L5_axial_rotation	L3_L4_Flex_Ext	L3_L4_Lat_Bending	L3_L4_axial_rotation	L2_L3_Flex_Ext	L2_L3_Lat_Bending	L2_L3_axial_rotation	L1_L2_Flex_Ext	L1_L2_Lat_Bending	L1_L2_axial_rotation	L1_T12_Flex_Ext	L1_T12_Lat_Bending	L1_T12_axial_rotation	Abs_r3	Abs_r2	Abs_r1	Abs_t1	Abs_t2	neck_flexion	neck_bending	neck_rotation	arm_flex_r	arm_add_r	arm_rot_r	elbow_flex_r	pro_sup_r	wrist_flex_r	wrist_dev_r	arm_flex_l	arm_add_l	arm_rot_l	elbow_flex_l	pro_sup_l	wrist_flex_l	wrist_dev_l
      2.03333333	     32.57569296	     -7.47168737	     -2.74758110	     -0.57029372	      0.66918611	     -0.34430609	     40.15616275	     -9.68851579	     -4.28768101	     89.55227486	      1.56298205	     22.03737734	     -7.38980335	      0.00000000	     41.59449337	    -21.28642768	     -3.78624541	     95.11062553	      1.65999357	     29.32821413	    -13.25256187	      0.00000000	    -11.08403243	      0.29409734	      0.55476648	    -20.58415662	      0.39114947	      0.58943938	    -18.20995688	      0.71506828	      0.58943938	    -12.66794066	      0.71506828	      0.48542067	    -10.29263251	      0.59972330	      0.45074776	     -6.33341613	      0.45555678	      0.41607486	    -79.17213524	      3.32688796	      3.08544471	      0.00000000	      0.00000000	     28.54367941	    -13.45638910	    -43.01329633	     36.02976400	    -25.00873685	      9.74859635	     72.55017734	     89.99559364	      0.00000000	      0.00000000	     35.84537471	    -25.12270483	      6.00670353	     79.58868909	     89.99559364	      0.00000000	      0.00000000
      2.06666667	     34.63387564	     -7.78127662	     -2.04718283	     -0.57472314	      0.67028910	     -0.34469593	     37.95734482	    -10.13832364	     -5.16812726	     89.45674029	      1.56131466	     21.84263720	     -6.49752413	      0.00000000	     39.92870425	    -21.53712023	     -3.47531332	     95.12188505	      1.66019008	     28.63241790	    -12.98848154	      0.00000000	    -11.07198327	      0.30609449	      0.44283217	    -20.56178014	      0.40710567	      0.47050918	    -18.19016132	      0.74423815	      0.47050918	    -12.65416968	      0.74423815	      0.38747814	    -10.28144367	      0.62418789	      0.35980113	     -6.32653124	      0.47414037	      0.33212412	    -79.08606933	      3.46260211	      2.46289965	      0.00000000	      0.00000000	     28.54065551	    -12.57199529	    -42.93134944	     34.11110172	    -23.53509522	      8.49808291	     71.40336554	     89.99559364	      0.00000000	      0.00000000	     34.41023024	    -24.88314635	      5.87287426	     78.68703077	     89.99559364	      0.00000000	      0.00000000
      2.10000000	     37.00118291	     -7.81904546	     -1.09131906	     -0.57912017	      0.67212910	     -0.34503739	     35.21600319	    -10.90698640	     -6.11787733	     89.23835619	      1.55750313	     22.12835634	     -5.34818384	      0.00000000	     37.76747369	    -21.52745793	     -3.31151665	     94.92875549	      1.65681934	     28.25727620	    -12.68730172	      0.00000000	    -11.09383372	      0.31142981	      0.28626515	    -20.60235859	      0.41420165	      0.30415672	    -18.22605941	      0.75721044	      0.30415672	    -12.67914255	      0.75721044	      0.25048200	    -10.30173399	      0.63506767	      0.23259043	     -6.33901658	      0.48240478	      0.21469886	    -79.24214484	      3.52295631	      1.59212086	      0.00000000	      0.00000000	     28.53647952	    -11.74843539	    -42.79406486	     32.41505414	    -21.92265729	      7.11942230	     70.02833943	     89.99559364	      0.00000000	      0.00000000	     33.29705486	    -24.63787033	      5.88370527	     77.50141028	     89.99559364	      0.00000000	      0.00000000
      2.13333333	     39.16407053	     -7.72241279	     -0.32525662	     -0.58330750	      0.67344643	     -0.34501306	     32.79363707	    -11.60169223	     -6.80837598	     89.11568001	      1.55536203	     22.40947104	     -4.14945435	      0.00000000	     35.77469207	    -21.57473911	     -3.34946431	     94.79632580	      1.65450800	     27.83901096	    -12.40066845	      0.00000000	    -11.06999810	      0.29667189	      0.14692362	    -20.55809348	      0.39457361	      0.15610634	    -18.18689988	      0.72132804	      0.15610634	    -12.65190083	      0.72132804	      0.12855816	    -10.27960024	      0.60497332	      0.11937544	     -6.32539692	      0.45954476	      0.11019271	    -79.07188944	      3.35601176	      0.81714508	      0.00000000	      0.00000000	     28.53234632	    -11.00296638	    -42.66121347	     30.97477879	    -20.48959556	      6.21859388	     68.38539608	     89.99559364	      0.00000000	      0.00000000	     32.38231606	    -24.47188076	      6.13886442	     75.99772815	     89.99559364	      0.00000000	      0.00000000
      2.16666667	     41.60725327	     -7.20601030	      0.43548032	     -0.58757810	      0.67522826	     -0.34498642	     30.06349417	    -12.68540302	     -7.27736754	     89.03239608	      1.55390845	     22.91975519	     -2.72342727	      0.00000000	     33.22716440	    -21.23562620	     -3.68741027	     94.47328533	      1.64886988	     27.46653886	    -12.19814570	      0.00000000	    -11.08434754	      0.24740619	     -0.03494542	    -20.58474181	      0.32905024	     -0.03712951	    -18.21047457	      0.60154342	     -0.03712951	    -12.66830080	      0.60154342	     -0.03057725	    -10.29292512	      0.50451071	     -0.02839316	     -6.33359618	      0.38323220	     -0.02620907	    -79.17438601	      2.79870836	     -0.19435597	      0.00000000	      0.00000000	     28.52906499	    -10.41083049	    -42.48953981	     29.75677585	    -19.06469993	      5.39947349	     66.78223702	     89.99559364	      0.00000000	      0.00000000	     31.74272430	    -24.55994648	      6.81568851	     74.40140690	     89.99559364	      0.00000000	      0.00000000
